<mxfile host="www.draw.io" modified="2019-11-14T15:53:54.098Z" agent="Mozilla/5.0 (X11; Linux armv7l) AppleWebKit/537.36 (KHTML, like Gecko) Raspbian Chromium/74.0.3729.157 Chrome/74.0.3729.157 Safari/537.36" etag="3m0HbrWCpti5ZeNi8ovT" version="12.2.6" type="github" pages="1">
  <diagram id="HVjW1mX6V3TAgQN_aDQb" name="Page-1">
    <mxGraphModel dx="1168" dy="734" grid="1" gridSize="10" guides="1" tooltips="1" connect="1" arrows="1" fold="1" page="1" pageScale="1" pageWidth="827" pageHeight="1169" math="0" shadow="0">
      <root>
        <mxCell id="0"/>
        <mxCell id="1" parent="0"/>
        <mxCell id="R-Dushento2WEz46BiTT-9" style="edgeStyle=orthogonalEdgeStyle;rounded=0;orthogonalLoop=1;jettySize=auto;html=1;" edge="1" parent="1" source="R-Dushento2WEz46BiTT-1" target="R-Dushento2WEz46BiTT-5">
          <mxGeometry relative="1" as="geometry"/>
        </mxCell>
        <mxCell id="R-Dushento2WEz46BiTT-1" value="UIController" style="swimlane;fontStyle=1;align=center;verticalAlign=top;childLayout=stackLayout;horizontal=1;startSize=26;horizontalStack=0;resizeParent=1;resizeParentMax=0;resizeLast=0;collapsible=1;marginBottom=0;" vertex="1" parent="1">
          <mxGeometry x="160" y="90" width="160" height="86" as="geometry"/>
        </mxCell>
        <mxCell id="R-Dushento2WEz46BiTT-2" value="+ field: type" style="text;strokeColor=none;fillColor=none;align=left;verticalAlign=top;spacingLeft=4;spacingRight=4;overflow=hidden;rotatable=0;points=[[0,0.5],[1,0.5]];portConstraint=eastwest;" vertex="1" parent="R-Dushento2WEz46BiTT-1">
          <mxGeometry y="26" width="160" height="26" as="geometry"/>
        </mxCell>
        <mxCell id="R-Dushento2WEz46BiTT-3" value="" style="line;strokeWidth=1;fillColor=none;align=left;verticalAlign=middle;spacingTop=-1;spacingLeft=3;spacingRight=3;rotatable=0;labelPosition=right;points=[];portConstraint=eastwest;" vertex="1" parent="R-Dushento2WEz46BiTT-1">
          <mxGeometry y="52" width="160" height="8" as="geometry"/>
        </mxCell>
        <mxCell id="R-Dushento2WEz46BiTT-4" value="+ method(type): type" style="text;strokeColor=none;fillColor=none;align=left;verticalAlign=top;spacingLeft=4;spacingRight=4;overflow=hidden;rotatable=0;points=[[0,0.5],[1,0.5]];portConstraint=eastwest;" vertex="1" parent="R-Dushento2WEz46BiTT-1">
          <mxGeometry y="60" width="160" height="26" as="geometry"/>
        </mxCell>
        <mxCell id="R-Dushento2WEz46BiTT-5" value="UIStatus" style="swimlane;fontStyle=1;align=center;verticalAlign=top;childLayout=stackLayout;horizontal=1;startSize=26;horizontalStack=0;resizeParent=1;resizeParentMax=0;resizeLast=0;collapsible=1;marginBottom=0;" vertex="1" parent="1">
          <mxGeometry x="30" y="270" width="160" height="86" as="geometry"/>
        </mxCell>
        <mxCell id="R-Dushento2WEz46BiTT-6" value="+ field: type" style="text;strokeColor=none;fillColor=none;align=left;verticalAlign=top;spacingLeft=4;spacingRight=4;overflow=hidden;rotatable=0;points=[[0,0.5],[1,0.5]];portConstraint=eastwest;" vertex="1" parent="R-Dushento2WEz46BiTT-5">
          <mxGeometry y="26" width="160" height="26" as="geometry"/>
        </mxCell>
        <mxCell id="R-Dushento2WEz46BiTT-7" value="" style="line;strokeWidth=1;fillColor=none;align=left;verticalAlign=middle;spacingTop=-1;spacingLeft=3;spacingRight=3;rotatable=0;labelPosition=right;points=[];portConstraint=eastwest;" vertex="1" parent="R-Dushento2WEz46BiTT-5">
          <mxGeometry y="52" width="160" height="8" as="geometry"/>
        </mxCell>
        <mxCell id="R-Dushento2WEz46BiTT-8" value="+ method(type): type" style="text;strokeColor=none;fillColor=none;align=left;verticalAlign=top;spacingLeft=4;spacingRight=4;overflow=hidden;rotatable=0;points=[[0,0.5],[1,0.5]];portConstraint=eastwest;" vertex="1" parent="R-Dushento2WEz46BiTT-5">
          <mxGeometry y="60" width="160" height="26" as="geometry"/>
        </mxCell>
      </root>
    </mxGraphModel>
  </diagram>
</mxfile>
